<?xml version="1.0" encoding="utf-8"?>
<!-- Generator: Adobe Illustrator 15.0.0, SVG Export Plug-In . SVG Version: 6.00 Build 0)  -->
<!DOCTYPE svg PUBLIC "-//W3C//DTD SVG 1.1//EN" "http://www.w3.org/Graphics/SVG/1.1/DTD/svg11.dtd">
<svg version="1.1" id="Capa_1" xmlns="http://www.w3.org/2000/svg" xmlns:xlink="http://www.w3.org/1999/xlink" x="0px" y="0px"
	 width="24px" height="24px" viewBox="0 0 24 24" enable-background="new 0 0 24 24" xml:space="preserve">
<rect fill="none" width="24" height="24"/>
<g id="Capa_2">
	<path fill="#556F7A" d="M12,7C8.611,7,5.454,7.953,2.748,9.581l4.626,6.709C8.729,15.477,10.307,15,12,15s3.271,0.477,4.626,1.29
		l4.626-6.709C18.546,7.953,15.389,7,12,7z"/>
	<g>
		<circle fill="#90A4AE" cx="5.5" cy="12.5" r="5.5"/>
		<path fill="#B5E4FA" d="M7.979,14.973c-1.367,1.366-3.584,1.373-4.949,0.006c-1.366-1.367-1.367-3.588,0-4.957
			c1.367-1.366,3.582-1.359,4.949,0.008C9.344,11.396,9.346,13.605,7.979,14.973z"/>
		<path fill="#E1F5FE" d="M3.029,14.979c-1.367-1.367-1.368-3.588,0-4.957c1.365-1.366,3.58-1.359,4.947,0.008L3.029,14.979z"/>
	</g>
	<g>
		<circle fill="#90A4AE" cx="18.5" cy="12.5" r="5.5"/>
		<path fill="#B5E4FA" d="M20.979,14.973c-1.367,1.366-3.584,1.373-4.949,0.006c-1.366-1.367-1.367-3.588,0-4.957
			c1.367-1.366,3.582-1.359,4.949,0.008C22.344,11.396,22.346,13.605,20.979,14.973z"/>
		<path fill="#E1F5FE" d="M16.029,14.979c-1.367-1.367-1.368-3.588,0-4.957c1.365-1.366,3.58-1.359,4.947,0.008L16.029,14.979z"/>
	</g>
</g>
</svg>
