<?xml version="1.0" encoding="utf-8"?>
<!-- Generator: Adobe Illustrator 16.0.0, SVG Export Plug-In . SVG Version: 6.00 Build 0)  -->
<!DOCTYPE svg PUBLIC "-//W3C//DTD SVG 1.1//EN" "http://www.w3.org/Graphics/SVG/1.1/DTD/svg11.dtd">
<svg version="1.1" id="Layer_1" xmlns="http://www.w3.org/2000/svg" xmlns:xlink="http://www.w3.org/1999/xlink" x="0px" y="0px"
	 width="24px" height="24px" viewBox="0 0 24 24" enable-background="new 0 0 24 24" xml:space="preserve">
<path fill="#546E7A" d="M18,19v-2h-5c0,0-4,0-4-4v-1c0-2-2-2-2-2H2V8h5c4,0,4,4,4,4v1c0,0,0,2,2,2h5v-2l4,3L18,19z"/>
<path fill="#78909C" d="M18,6v2h-5c0,0-4,0-4,4v1c0,2-2,2-2,2H2v2h5c4,0,4-4,4-4v-1c0,0,0-2,2-2h5v2l4-3L18,6z"/>
<rect fill="none" width="24" height="24"/>
</svg>
